<?xml version="1.0" encoding="UTF-8" standalone="no"?>
<svg
   width="512"
   height="512"
   viewBox="0 0 512 512"
   version="1.1"
   id="svg1"
   xmlns:xlink="http://www.w3.org/1999/xlink"
   xmlns="http://www.w3.org/2000/svg"
   xmlns:svg="http://www.w3.org/2000/svg">
  <defs
     id="defs1">
    <linearGradient
       id="linearGradient1">
      <stop
         style="stop-color:#cba6f7;stop-opacity:1;"
         offset="0"
         id="stop1" />
      <stop
         style="stop-color:#f5c2e7;stop-opacity:1;"
         offset="0.66905141"
         id="stop2" />
    </linearGradient>
    <linearGradient
       xlink:href="#linearGradient1"
       id="linearGradient2"
       x1="19.76811"
       y1="254.07954"
       x2="489.61877"
       y2="254.07954"
       gradientUnits="userSpaceOnUse" />
  </defs>
  <path
     fill="currentColor"
     d="M 255.295,19.137 C 174.005,18.97 94.94,61.107 51.33,136.643 c -64.91,112.426 -26.51,255.934 85.918,320.843 112.427,64.91 255.91,26.41 320.818,-86.015 C 522.976,259.045 484.54,115.598 372.113,50.688 335.223,29.39 294.993,19.218 255.295,19.138 Z m 72.264,104.44 c 23.888,0.1 47.577,6.047 69.118,18.476 72.557,41.867 93.585,141.627 46.838,222.55 C 396.77,445.52 299.768,477.276 227.21,435.41 154.654,393.543 133.67,293.71 180.416,212.79 c 32.87,-56.9 90.563,-89.453 147.143,-89.214 z m 69.854,42.398 c 13.708,22.326 19.042,51.598 15.473,82.795 -6.7,-12.15 -16.443,-22.473 -28.955,-29.676 -40.07,-23.07 -93.725,-5.624 -119.54,38.965 -25.818,44.586 -14.2,99.74 25.872,122.807 10.52,6.057 21.984,9.31 33.634,10.014 -36.447,22.57 -77.037,27.46 -108.996,9.016 a 83,83 0 0 1 -5.738,-3.646 121.5,121.5 0 0 0 27.9,22.11 c 64.273,37.087 149.69,9.063 191.098,-62.618 39.038,-67.578 24.853,-149.527 -30.748,-189.767 m -53.11,62.04 c 10.274,0.123 20.466,2.733 29.776,8.092 31.778,18.295 40.878,61.486 20.404,96.846 -20.473,35.36 -62.59,49.197 -94.37,30.902 -27.558,-15.865 -38.003,-50.53 -26.94,-82.52 4.262,16.973 19.722,29.677 37.957,29.677 21.485,0 39.085,-17.632 39.085,-39.11 0,-19.34 -14.273,-35.523 -32.803,-38.552 8.006,-3.33 16.43,-5.157 24.838,-5.327 a 64,64 0 0 1 2.055,-0.007 z"
     id="path1"
     style="fill:url(#linearGradient2);stroke:#cdd6f4;stroke-width:3.26929;stroke-dasharray:none;stroke-opacity:1" />
</svg>
