<?xml version="1.0" encoding="UTF-8" standalone="no"?>
<!-- Created with Inkscape (http://www.inkscape.org/) -->

<svg
   width="1100"
   height="500"
   viewBox="0 0 291.04166 132.29166"
   version="1.1"
   id="svg1"
   xml:space="preserve"
   xmlns:xlink="http://www.w3.org/1999/xlink"
   xmlns="http://www.w3.org/2000/svg"
   xmlns:svg="http://www.w3.org/2000/svg"><defs
     id="defs1"><linearGradient
       id="linearGradient1"><stop
         style="stop-color:#8839ef;stop-opacity:1;"
         offset="0"
         id="stop1" /><stop
         style="stop-color:#ea76cb;stop-opacity:1;"
         offset="0.66905141"
         id="stop2" /></linearGradient><linearGradient
       xlink:href="#linearGradient1"
       id="linearGradient2"
       x1="19.76811"
       y1="254.07954"
       x2="489.61877"
       y2="254.07954"
       gradientUnits="userSpaceOnUse"
       gradientTransform="matrix(0.2117446,0,0,0.21174458,6.1585308,12.346755)" /></defs><path
     fill="currentColor"
     d="m 60.215871,16.398911 c -17.21272,-0.03536 -33.95431,8.886919 -43.18849,24.881257 -13.7443406,23.805596 -5.61334,54.192628 18.19267,67.936762 23.80581,13.74433 54.18757,5.59217 67.931489,-18.213214 13.74434,-23.805588 5.60573,-54.179713 -18.200089,-67.924052 -7.81125,-4.509736 -16.32974,-6.663602 -24.73558,-6.680542 z m 15.30151,22.114603 c 5.05816,0.02118 10.07417,1.280419 14.635359,3.912193 15.36357,8.86511 19.81613,29.988748 9.91771,47.123749 -9.89801,17.133734 -30.437659,23.857894 -45.801419,14.992994 -15.36335,-8.865104 -19.8066,-30.004198 -9.90838,-47.138568 6.96004,-12.048265 19.17623,-18.941186 31.15673,-18.89058 z M 90.30859,47.49106 c 2.90259,4.72741 4.03205,10.925597 3.27633,17.531393 -1.41869,-2.572698 -3.48172,-4.758536 -6.131059,-6.283732 -8.48462,-4.884948 -19.84577,-1.190852 -25.31196,8.250626 -5.46682,9.440842 -3.00677,21.119409 5.47826,26.003709 2.22755,1.28253 4.65499,1.97134 7.12182,2.1204 -7.71746,4.77908 -16.31217,5.814514 -23.07932,1.9091 a 17.574803,17.5748 0 0 1 -1.21499,-0.77202 25.726969,25.726966 0 0 0 5.90768,4.681664 c 13.60945,7.85298 31.69605,1.91905 40.463969,-13.259004 8.26609,-14.30928 5.26248,-31.661534 -6.51073,-40.182136 M 79.062841,60.627694 c 2.17546,0.02604 4.33356,0.578697 6.3049,1.713437 6.728819,3.873867 8.655699,13.019328 4.32045,20.506605 -4.33506,7.4873 -13.2531,10.4172 -19.98235,6.54334 -5.83526,-3.35933 -8.04693,-10.69946 -5.7044,-17.473161 0.90246,3.593943 4.17603,6.283941 8.03719,6.283941 4.54934,0 8.27604,-3.733477 8.27604,-8.281329 0,-4.095139 -3.02223,-7.521801 -6.94585,-8.163176 1.69522,-0.70511 3.47895,-1.091966 5.25931,-1.127963 a 13.551655,13.551652 0 0 1 0.43513,-0.0015 z"
     id="path1"
     style="fill:url(#linearGradient2);stroke:#4c4f69;stroke-width:0.69215;stroke-dasharray:none;stroke-opacity:1" /><text
     xml:space="preserve"
     style="font-style:normal;font-variant:normal;font-weight:normal;font-stretch:normal;font-size:63.5px;font-family:Comi;-inkscape-font-specification:Comi;text-align:start;writing-mode:lr-tb;direction:ltr;text-anchor:start;fill:#4c4569;fill-opacity:1;stroke:#ea76cb;stroke-width:0.864923;stroke-linecap:butt;stroke-linejoin:miter;stroke-dasharray:none;stroke-opacity:1;paint-order:stroke fill markers"
     x="115.96395"
     y="86.020401"
     id="text1"><tspan
       id="tspan1"
       style="font-style:normal;font-variant:normal;font-weight:normal;font-stretch:normal;font-size:63.5px;font-family:Comi;-inkscape-font-specification:Comi;fill:#4c4569;fill-opacity:1;stroke:#ea76cb;stroke-width:0.864923;stroke-linecap:butt;stroke-linejoin:miter;stroke-dasharray:none;stroke-opacity:1;paint-order:stroke fill markers"
       x="115.96395"
       y="86.020401">Vigil</tspan></text></svg>
